<svg width="15" height="15" viewBox="0 0 15 15" fill="none" xmlns="http://www.w3.org/2000/svg">
<path d="M13.5938 4.21875V10.7812C13.5938 11.1542 13.4456 11.5119 13.1819 11.7756C12.9181 12.0393 12.5605 12.1875 12.1875 12.1875H2.8125C2.43954 12.1875 2.08185 12.0393 1.81813 11.7756C1.55441 11.5119 1.40625 11.1542 1.40625 10.7812V4.21875M13.5938 4.21875C13.5938 3.84579 13.4456 3.4881 13.1819 3.22438C12.9181 2.96066 12.5605 2.8125 12.1875 2.8125H2.8125C2.43954 2.8125 2.08185 2.96066 1.81813 3.22438C1.55441 3.4881 1.40625 3.84579 1.40625 4.21875M13.5938 4.21875V4.37063C13.5938 4.61072 13.5323 4.84682 13.4153 5.05643C13.2982 5.26605 13.1294 5.44221 12.925 5.56813L8.2375 8.4525C8.01575 8.58908 7.76044 8.66141 7.5 8.66141C7.23956 8.66141 6.98425 8.58908 6.7625 8.4525L2.075 5.56875C1.87058 5.44284 1.70179 5.26668 1.58473 5.05706C1.46767 4.84744 1.40622 4.61134 1.40625 4.37125V4.21875" stroke="black" stroke-width="0.9375" stroke-linecap="round" stroke-linejoin="round"/>
</svg>
