<svg width="16" height="16" viewBox="0 0 16 16" fill="none" xmlns="http://www.w3.org/2000/svg">
<g clip-path="url(#clip0_224_9)">
<path fill-rule="evenodd" clip-rule="evenodd" d="M1 0C0.447715 0 0 0.447715 0 1V15C0 15.5523 0.447715 16 1 16H15C15.5523 16 16 15.5523 16 15V1C16 0.447715 15.5523 0 15 0H1ZM5.15243 4.22361C5.13712 3.52903 4.64043 3 3.83386 3C3.0273 3 2.5 3.52903 2.5 4.22361C2.5 4.90381 3.01172 5.44807 3.80326 5.44807H3.81833C4.64043 5.44807 5.15243 4.90381 5.15243 4.22361ZM4.99714 6.41501H2.63942V13.499H4.99714V6.41501ZM13.5 9.43723C13.5 7.26134 12.3369 6.24864 10.7854 6.24864C9.53358 6.24864 8.97313 6.93621 8.6602 7.41856V6.41517H6.3022C6.33327 7.0799 6.3022 13.4992 6.3022 13.4992H8.6602V9.54287C8.6602 9.33116 8.67551 9.11996 8.73785 8.96838C8.90825 8.54541 9.29622 8.1075 9.9476 8.1075C10.8011 8.1075 11.1423 8.75708 11.1423 9.70903V13.499H13.4999L13.5 9.43723Z" fill="black"/>
</g>
<defs>
<clipPath id="clip0_224_9">
<rect width="16" height="16" fill="white"/>
</clipPath>
</defs>
</svg>
