<svg width="147" height="49" viewBox="0 0 147 49" fill="none" xmlns="http://www.w3.org/2000/svg">
<path d="M26.7715 9.43594H18.1243C17.9489 9.43228 17.7771 9.41035 17.6016 9.41035C11.1144 9.41035 5.0073 6.35496 1.11497 1.16519V1.16519C1.0153 1.03268 0.804321 1.10317 0.804321 1.26898V26.2077C0.804321 35.8563 8.47569 44.0393 18.1243 44.0357H26.7715C26.7715 44.0357 26.7715 44.0357 26.7715 44.0357C26.7715 44.0357 26.7752 44.0357 26.7788 44.0357C36.336 44.032 44.0805 36.2875 44.0841 26.7303C44.0878 17.2571 36.1935 9.70639 26.7715 9.43594ZM26.7715 36.9198H18.117C12.5873 36.9198 7.91649 32.0151 7.91649 26.2077V15.8192C7.91649 15.3089 8.42649 14.9551 8.91079 15.1159C11.6431 16.0234 14.5275 16.5099 17.4555 16.5262C17.6199 16.5372 17.7844 16.5445 17.9489 16.5481H26.6545C32.3523 16.7564 36.9719 21.3066 36.9683 26.7267C36.9683 32.344 32.3925 36.9162 26.7715 36.9198ZM16.8159 31.3664C16.8159 31.3654 16.8151 31.3646 16.8141 31.3646C16.6394 31.3638 16.4794 31.2543 16.4138 31.0832L15.5258 28.8062C15.3942 28.4663 15.1347 28.1959 14.8058 28.0606L12.6166 27.1506C12.4229 27.0702 12.3132 26.8619 12.3534 26.6499C12.3826 26.4942 12.4866 26.3702 12.6247 26.3161C12.6598 26.3024 12.6962 26.2918 12.731 26.2773L14.8204 25.4073C15.1493 25.2721 15.4088 25.0016 15.5404 24.6617L16.4285 22.3848C16.4943 22.2167 16.6551 22.1034 16.8305 22.1034C17.0059 22.1034 17.1667 22.213 17.2325 22.3848L18.1206 24.6617C18.2522 25.0016 18.5117 25.2684 18.8406 25.4073L21.0298 26.3173C21.2528 26.4087 21.3588 26.6718 21.271 26.9021C21.2238 27.0219 21.133 27.1118 21.0221 27.1553C20.9867 27.1692 20.9501 27.1799 20.915 27.1945L18.826 28.0643C18.4971 28.1995 18.2376 28.47 18.106 28.8099L17.2179 31.0868C17.1524 31.2543 16.9924 31.3674 16.8177 31.3682C16.8167 31.3682 16.8159 31.3674 16.8159 31.3664V31.3664ZM28.0543 31.3664C28.0543 31.3654 28.0535 31.3646 28.0525 31.3646C27.8778 31.3638 27.7178 31.2543 27.6523 31.0832L26.7642 28.8062C26.6326 28.4663 26.3731 28.1959 26.0442 28.0606L23.855 27.1506C23.6613 27.0702 23.5516 26.8619 23.5918 26.6499C23.621 26.4942 23.7251 26.3702 23.8631 26.3161C23.8982 26.3024 23.9346 26.2918 23.9694 26.2773L26.0588 25.4073C26.3877 25.2721 26.6472 25.0016 26.7788 24.6617L27.6669 22.3848C27.7327 22.2167 27.8935 22.1034 28.0689 22.1034C28.2443 22.1034 28.4051 22.213 28.4709 22.3848L29.3591 24.6617C29.4906 25.0016 29.7501 25.2684 30.079 25.4073L32.2682 26.3173C32.4912 26.4087 32.5972 26.6718 32.5095 26.9021C32.4622 27.0219 32.3714 27.1118 32.2605 27.1553C32.2252 27.1692 32.1885 27.1799 32.1534 27.1945L30.0644 28.0643C29.7355 28.1995 29.476 28.47 29.3444 28.8099L28.4563 31.0868C28.3908 31.2543 28.2309 31.3674 28.0561 31.3682C28.0551 31.3682 28.0543 31.3674 28.0543 31.3664V31.3664Z" fill="url(#paint0_linear_3151_886)"/>
<path d="M73.348 24.5552C72.4197 22.969 71.1954 21.7264 69.6384 20.8456C66.4805 19.0612 61.6727 18.9485 58.8003 21.3729C58.5426 21.5904 58.1076 21.4184 58.1076 21.0813V12.3263C58.1076 12.1244 57.944 11.9608 57.7422 11.9608H52.4464C52.2446 11.9608 52.0809 12.1244 52.0809 12.3263V29.6755C52.0809 34.8287 55.3885 40.9358 63.323 40.9358C65.2783 40.9358 70.1391 40.9358 73.348 35.874C75.2558 32.8624 75.1425 27.6179 73.348 24.5552ZM67.9042 33.3083C67.9031 33.3083 67.9021 33.309 67.9016 33.31C66.077 36.8754 60.5158 36.8931 58.7289 33.3083C56.9418 29.723 58.6559 24.4894 63.3267 24.4821C67.9347 24.4748 69.7914 29.6155 67.9069 33.3067C67.9064 33.3077 67.9054 33.3083 67.9042 33.3083Z" fill="#292C39"/>
<path d="M110.326 33.1807C110.2 33.481 109.774 33.4783 109.651 33.1764L104.331 20.0721C104.275 19.9343 104.141 19.8441 103.992 19.8441H98.5677C98.3064 19.8441 98.1295 20.1103 98.2307 20.3512L106.655 40.4049C106.712 40.5406 106.845 40.6288 106.992 40.6288H112.727C112.874 40.6288 113.007 40.5408 113.064 40.4054L121.523 20.3517C121.625 20.1107 121.448 19.8441 121.186 19.8441H116.183C116.036 19.8441 115.904 19.9323 115.847 20.0678L110.326 33.1807Z" fill="#292C39"/>
<path d="M140.479 19.8435C140.479 19.8439 140.479 19.8443 140.479 19.8447L134.948 33.1448C134.823 33.4454 134.397 33.4449 134.273 33.1441L128.87 20.07C128.813 19.9333 128.68 19.8441 128.532 19.8441H123.111C122.848 19.8441 122.671 20.1126 122.775 20.3538L131.493 40.6585C131.532 40.7493 131.533 40.8521 131.495 40.9433L131.481 40.976C131.068 41.9043 130.611 42.5659 130.11 42.9642C129.61 43.3626 128.933 43.5636 128.082 43.5636C127.49 43.5636 126.89 43.4467 126.284 43.2164C125.831 43.0444 125.418 42.8195 125.045 42.546C124.853 42.4052 124.574 42.4575 124.465 42.6695L122.609 46.2861C122.533 46.4347 122.566 46.617 122.696 46.721C123.331 47.2268 124.121 47.6301 125.067 47.931C126.123 48.2673 127.19 48.4317 128.272 48.4317C129.533 48.4317 130.688 48.2381 131.729 47.8507C132.771 47.4632 133.725 46.7944 134.587 45.8405C135.45 44.8866 136.217 43.5746 136.886 41.9007L146.059 20.3491C146.162 20.108 145.985 19.8405 145.723 19.8405H140.482C140.48 19.8405 140.479 19.8418 140.479 19.8435Z" fill="#292C39"/>
<path d="M87.5996 41.0382C85.4327 41.0382 83.5114 40.5958 81.8357 39.7112C80.16 38.8265 78.8454 37.5825 77.892 35.9791C76.9386 34.3757 76.4619 32.5235 76.4619 30.4224C76.4619 28.2938 76.9242 26.4001 77.8487 24.7414C78.8021 23.0827 80.1022 21.7972 81.749 20.8849C83.4247 19.945 85.3894 19.475 87.6429 19.475C89.752 19.475 91.6155 19.9173 93.2334 20.802C94.8513 21.6866 96.1081 22.903 97.0037 24.4511C97.9283 25.9716 98.3905 27.6718 98.3905 29.5516C98.3905 29.8557 98.3761 30.1736 98.3472 30.5054C98.3472 30.7323 98.3404 30.9657 98.3269 31.2056C98.3162 31.3958 98.1571 31.5421 97.9666 31.5421H82.3585C82.1463 31.5421 81.9778 31.7226 82.0039 31.9331C82.1801 33.3514 82.7452 34.4789 83.6992 35.3156C84.7682 36.2279 86.0539 36.6841 87.5562 36.6841C88.683 36.6841 89.622 36.4491 90.3731 35.9791C91.0838 35.5258 91.6266 34.9577 92.0016 34.2749C92.069 34.1522 92.1955 34.0716 92.3355 34.0716H97.2439C97.4903 34.0716 97.666 34.3105 97.5804 34.5416C97.1665 35.6589 96.5409 36.691 95.7036 37.6378C94.7791 38.6883 93.6234 39.5177 92.2366 40.1259C90.8787 40.7341 89.333 41.0382 87.5996 41.0382ZM87.6429 23.7876C86.285 23.7876 85.086 24.1608 84.0459 24.9073C83.1089 25.5548 82.4767 26.5165 82.1493 27.7923C82.0922 28.0148 82.2657 28.2247 82.4954 28.2247H92.3671C92.5781 28.2247 92.7466 28.0461 92.719 27.8369C92.5646 26.6627 92.0571 25.7138 91.1965 24.9902C90.2431 24.1885 89.0586 23.7876 87.6429 23.7876Z" fill="#292C39"/>
<defs>
<linearGradient id="paint0_linear_3151_886" x1="9.57952" y1="39.5768" x2="30.7772" y2="17.8309" gradientUnits="userSpaceOnUse">
<stop stop-color="#AD00FF"/>
<stop offset="1" stop-color="#00DDFF"/>
</linearGradient>
</defs>
</svg>
