<svg width="168" height="100" viewBox="0 0 168 100" fill="none" xmlns="http://www.w3.org/2000/svg">
<rect x="164" width="4" height="100" fill="url(#paint0_linear_223_4)"/>
<path d="M26.7714 34.4357H18.1242C17.9488 34.432 17.777 34.4101 17.6015 34.4101C11.1143 34.4101 5.00718 31.3547 1.11485 26.1649C1.01518 26.0324 0.804199 26.1029 0.804199 26.2687V51.2074C0.804199 60.856 8.47557 69.039 18.1242 69.0354H26.7714C26.7714 69.0354 26.7751 69.0354 26.7787 69.0354C36.3359 69.0317 44.0804 61.2872 44.084 51.73C44.0877 42.2568 36.1934 34.7061 26.7714 34.4357ZM26.7714 61.9195H18.1169C12.5872 61.9195 7.91637 57.0148 7.91637 51.2074V40.8189C7.91637 40.3086 8.42637 39.9548 8.91067 40.1156C11.643 41.0231 14.5274 41.5096 17.4554 41.5259C17.6198 41.5369 17.7843 41.5442 17.9488 41.5478H26.6544C32.3522 41.7561 36.9718 46.3063 36.9682 51.7264C36.9682 57.3437 32.3924 61.9159 26.7714 61.9195ZM16.8158 56.3661L16.814 56.3643C16.6393 56.3635 16.4793 56.254 16.4137 56.0829L15.5257 53.8059C15.3941 53.466 15.1346 53.1956 14.8057 53.0603L12.6165 52.1503C12.4228 52.0699 12.3131 51.8616 12.3533 51.6496C12.3825 51.4939 12.4865 51.3699 12.6246 51.3158C12.6597 51.3021 12.6961 51.2915 12.7309 51.277L14.8203 50.407C15.1492 50.2718 15.4087 50.0013 15.5403 49.6614L16.4284 47.3845C16.4942 47.2164 16.655 47.1031 16.8304 47.1031C17.0058 47.1031 17.1666 47.2127 17.2324 47.3845L18.1205 49.6614C18.2521 50.0013 18.5116 50.2681 18.8405 50.407L21.0297 51.317C21.2527 51.4084 21.3587 51.6715 21.2709 51.9018C21.2237 52.0216 21.1329 52.1115 21.022 52.155C20.9866 52.1689 20.95 52.1796 20.9149 52.1942L18.8259 53.064C18.497 53.1992 18.2375 53.4697 18.1059 53.8096L17.2178 56.0865C17.1523 56.254 16.9923 56.3671 16.8176 56.3679L16.8158 56.3661ZM28.0542 56.3661L28.0524 56.3643C27.8777 56.3635 27.7177 56.254 27.6522 56.0829L26.7641 53.8059C26.6325 53.466 26.373 53.1956 26.0441 53.0603L23.8549 52.1503C23.6612 52.0699 23.5515 51.8616 23.5917 51.6496C23.6209 51.4939 23.725 51.3699 23.863 51.3158C23.8981 51.3021 23.9345 51.2915 23.9693 51.277L26.0587 50.407C26.3876 50.2718 26.6471 50.0013 26.7787 49.6614L27.6668 47.3845C27.7326 47.2164 27.8934 47.1031 28.0688 47.1031C28.2442 47.1031 28.405 47.2127 28.4708 47.3845L29.359 49.6614C29.4905 50.0013 29.75 50.2681 30.0789 50.407L32.2681 51.317C32.4911 51.4084 32.5971 51.6715 32.5094 51.9018C32.4621 52.0216 32.3713 52.1115 32.2604 52.155C32.2251 52.1689 32.1884 52.1796 32.1533 52.1942L30.0643 53.064C29.7354 53.1992 29.4759 53.4697 29.3443 53.8096L28.4562 56.0865C28.3907 56.254 28.2308 56.3671 28.056 56.3679L28.0542 56.3661Z" fill="url(#paint1_linear_223_4)"/>
<path d="M73.3479 49.5553C72.4196 47.9691 71.1953 46.7265 69.6383 45.8457C66.4804 44.0613 61.6726 43.9486 58.8002 46.373C58.5425 46.5905 58.1075 46.4185 58.1075 46.0814V37.3264C58.1075 37.1245 57.9439 36.9609 57.7421 36.9609H52.4463C52.2445 36.9609 52.0808 37.1245 52.0808 37.3264V54.6756C52.0808 59.8288 55.3884 65.9359 63.3229 65.9359C65.2782 65.9359 70.139 65.9359 73.3479 60.8741C75.2557 57.8625 75.1424 52.618 73.3479 49.5553ZM67.9041 58.3084L67.9015 58.3101C66.0769 61.8755 60.5157 61.8932 58.7288 58.3084C56.9417 54.7231 58.6558 49.4895 63.3266 49.4822C67.9346 49.4749 69.7913 54.6156 67.9068 58.3068L67.9041 58.3084Z" fill="#292C39"/>
<path d="M110.326 58.1803C110.2 58.4806 109.774 58.4779 109.651 58.176L104.331 45.0717C104.275 44.9339 104.141 44.8438 103.992 44.8438H98.5676C98.3063 44.8438 98.1294 45.1099 98.2306 45.3508L106.655 65.4045C106.712 65.5402 106.845 65.6284 106.992 65.6284H112.727C112.874 65.6284 113.007 65.5404 113.064 65.405L121.523 45.3513C121.625 45.1103 121.448 44.8438 121.186 44.8438H116.183C116.036 44.8438 115.904 44.9319 115.847 45.0674L110.326 58.1803Z" fill="#292C39"/>
<path d="M140.479 44.8438V44.845L134.948 58.1451C134.823 58.4457 134.397 58.4452 134.273 58.1444L128.87 45.0703C128.813 44.9336 128.68 44.8444 128.532 44.8444H123.111C122.848 44.8444 122.671 45.1129 122.775 45.3541L131.493 65.6588C131.532 65.7496 131.533 65.8524 131.495 65.9436L131.481 65.9763C131.068 66.9046 130.611 67.5662 130.11 67.9645C129.61 68.3629 128.933 68.5639 128.082 68.5639C127.49 68.5639 126.89 68.447 126.284 68.2167C125.831 68.0447 125.418 67.8198 125.045 67.5463C124.853 67.4055 124.574 67.4578 124.465 67.6698L122.609 71.2864C122.533 71.435 122.566 71.6173 122.696 71.7213C123.331 72.2271 124.121 72.6304 125.067 72.9313C126.123 73.2676 127.19 73.432 128.272 73.432C129.533 73.432 130.688 73.2384 131.729 72.851C132.771 72.4635 133.725 71.7947 134.587 70.8408C135.45 69.8869 136.217 68.5749 136.886 66.901L146.059 45.3494C146.162 45.1083 145.985 44.8408 145.723 44.8408H140.482C140.48 44.8408 140.479 44.8438 140.479 44.8438Z" fill="#292C39"/>
<path d="M87.5996 66.0378C85.4327 66.0378 83.5114 65.5954 81.8357 64.7108C80.16 63.8261 78.8454 62.5821 77.892 60.9787C76.9386 59.3753 76.4619 57.5231 76.4619 55.422C76.4619 53.2934 76.9242 51.3997 77.8487 49.741C78.8021 48.0823 80.1022 46.7968 81.749 45.8845C83.4247 44.9446 85.3894 44.4746 87.6429 44.4746C89.752 44.4746 91.6155 44.9169 93.2334 45.8016C94.8513 46.6862 96.1081 47.9026 97.0037 49.4507C97.9283 50.9712 98.3905 52.6714 98.3905 54.5512C98.3905 54.8553 98.3761 55.1732 98.3472 55.505C98.3472 55.7319 98.3404 55.9653 98.3269 56.2052C98.3162 56.3954 98.1571 56.5417 97.9666 56.5417H82.3585C82.1463 56.5417 81.9778 56.7222 82.0039 56.9327C82.1801 58.351 82.7452 59.4785 83.6992 60.3152C84.7682 61.2275 86.0539 61.6837 87.5562 61.6837C88.683 61.6837 89.622 61.4487 90.3731 60.9787C91.0838 60.5254 91.6266 59.9573 92.0016 59.2745C92.069 59.1518 92.1955 59.0712 92.3355 59.0712H97.2439C97.4903 59.0712 97.666 59.3101 97.5804 59.5412C97.1665 60.6585 96.5409 61.6906 95.7036 62.6374C94.7791 63.6879 93.6234 64.5173 92.2366 65.1255C90.8787 65.7337 89.333 66.0378 87.5996 66.0378ZM87.6429 48.7872C86.285 48.7872 85.086 49.1604 84.0459 49.9069C83.1089 50.5544 82.4767 51.5161 82.1493 52.7919C82.0922 53.0144 82.2657 53.2243 82.4954 53.2243H92.3671C92.5781 53.2243 92.7466 53.0457 92.719 52.8365C92.5646 51.6623 92.0571 50.7134 91.1965 49.9898C90.2431 49.1881 89.0586 48.7872 87.6429 48.7872Z" fill="#292C39"/>
<defs>
<linearGradient id="paint0_linear_223_4" x1="166" y1="0" x2="166" y2="100" gradientUnits="userSpaceOnUse">
<stop stop-color="#AD00FF"/>
<stop offset="1" stop-color="#00DDFF"/>
</linearGradient>
<linearGradient id="paint1_linear_223_4" x1="9.5794" y1="64.5765" x2="30.7771" y2="42.8306" gradientUnits="userSpaceOnUse">
<stop stop-color="#AD00FF"/>
<stop offset="1" stop-color="#00DDFF"/>
</linearGradient>
</defs>
</svg>
